<svg id="visual" viewBox="0 0 540 960" width="540" height="960" xmlns="http://www.w3.org/2000/svg" xmlns:xlink="http://www.w3.org/1999/xlink" version="1.1"><rect x="0" y="0" width="540" height="960" fill="#050b11"></rect><defs><linearGradient id="grad1_0" x1="0%" y1="0%" x2="100%" y2="100%"><stop offset="30%" stop-color="#050b11" stop-opacity="1"></stop><stop offset="70%" stop-color="#050b11" stop-opacity="1"></stop></linearGradient></defs><defs><linearGradient id="grad2_0" x1="0%" y1="0%" x2="100%" y2="100%"><stop offset="30%" stop-color="#050b11" stop-opacity="1"></stop><stop offset="70%" stop-color="#050b11" stop-opacity="1"></stop></linearGradient></defs><g transform="translate(540, 0)"><path d="M0 270C-20.2 257.3 -40.4 244.5 -64.7 241.5C-89 238.4 -117.3 245 -135 233.8C-152.7 222.7 -159.7 193.7 -174.7 174.7C-189.6 155.6 -212.5 146.4 -224.3 129.5C-236.1 112.6 -236.7 87.8 -242.4 65C-248.2 42.1 -259.1 21 -270 0L0 0Z" fill="#FF6F61"></path></g><g transform="translate(0, 960)"><path d="M0 -270C20.3 -252.4 40.5 -234.8 60 -224.1C79.6 -213.4 98.4 -209.5 117.5 -203.5C136.6 -197.5 156 -189.3 178.9 -178.9C201.8 -168.5 228.2 -155.9 233.8 -135C239.5 -114.1 224.4 -84.7 227 -60.8C229.6 -36.9 249.8 -18.5 270 0L0 0Z" fill="#FF6F61"></path></g></svg>